<svg width="8" height="8" viewBox="0 0 8 8" fill="none" xmlns="http://www.w3.org/2000/svg">
<mask id="mask0_10_2130" style="mask-type:alpha" maskUnits="userSpaceOnUse" x="0" y="0" width="8" height="8">
<rect width="8" height="8" fill="#D9D9D9"/>
</mask>
<g mask="url(#mask0_10_2130)">
<path d="M4 4.00008C4.18334 4.00008 4.34028 3.9348 4.47084 3.80425C4.60139 3.67369 4.66667 3.51675 4.66667 3.33341C4.66667 3.15008 4.60139 2.99314 4.47084 2.86258C4.34028 2.73203 4.18334 2.66675 4 2.66675C3.81667 2.66675 3.65972 2.73203 3.52917 2.86258C3.39861 2.99314 3.33334 3.15008 3.33334 3.33341C3.33334 3.51675 3.39861 3.67369 3.52917 3.80425C3.65972 3.9348 3.81667 4.00008 4 4.00008ZM4 6.45008C4.67778 5.82786 5.18056 5.26258 5.50834 4.75425C5.83611 4.24591 6 3.79453 6 3.40008C6 2.79453 5.80695 2.29869 5.42084 1.91258C5.03472 1.52647 4.56111 1.33341 4 1.33341C3.43889 1.33341 2.96528 1.52647 2.57917 1.91258C2.19306 2.29869 2 2.79453 2 3.40008C2 3.79453 2.16389 4.24591 2.49167 4.75425C2.81945 5.26258 3.32222 5.82786 4 6.45008ZM4 7.33341C3.10556 6.5723 2.4375 5.86536 1.99584 5.21258C1.55417 4.5598 1.33334 3.95564 1.33334 3.40008C1.33334 2.56675 1.60139 1.90286 2.1375 1.40841C2.67361 0.91397 3.29445 0.666748 4 0.666748C4.70556 0.666748 5.32639 0.91397 5.8625 1.40841C6.39861 1.90286 6.66667 2.56675 6.66667 3.40008C6.66667 3.95564 6.44584 4.5598 6.00417 5.21258C5.5625 5.86536 4.89445 6.5723 4 7.33341Z" fill="#1C1B1F"/>
</g>
</svg>
