<svg width="197" height="25" viewBox="0 0 197 25" fill="none" xmlns="http://www.w3.org/2000/svg">
<path d="M8.51074 20.166C7.26888 20.166 6.12386 19.9552 5.07568 19.5337C4.0389 19.1121 3.14453 18.5254 2.39258 17.7734C1.64062 17.0101 1.05387 16.1043 0.632324 15.0562C0.210775 14.008 0 12.8516 0 11.5869C0 10.9033 0.0569661 10.2482 0.170898 9.62158C0.296224 8.98356 0.461426 8.39111 0.666504 7.84424C0.75765 7.62777 0.803223 7.47396 0.803223 7.38281C0.803223 7.26888 0.77474 7.16064 0.717773 7.05811C0.660807 6.95557 0.598145 6.84733 0.529785 6.7334C0.461426 6.61947 0.398763 6.49984 0.341797 6.37451C0.284831 6.24919 0.256348 6.10677 0.256348 5.94727C0.256348 5.46875 0.529785 5.00163 1.07666 4.5459C1.62354 4.07878 2.34701 3.66862 3.24707 3.31543C4.14714 2.95085 5.16683 2.66032 6.30615 2.44385C7.44548 2.21598 8.61328 2.10205 9.80957 2.10205C11.2793 2.10205 12.6009 2.29004 13.7744 2.66602C14.9593 3.04199 15.9619 3.58317 16.7822 4.28955C17.6139 4.98454 18.252 5.83333 18.6963 6.83594C19.1406 7.83854 19.3628 8.96647 19.3628 10.2197C19.3628 11.6211 19.0837 12.9313 18.5254 14.1504C17.9671 15.3581 17.1981 16.4062 16.2183 17.2949C15.2498 18.1836 14.1048 18.8843 12.7832 19.397C11.4616 19.9097 10.0374 20.166 8.51074 20.166ZM15.9277 10.8862C15.9277 9.99756 15.7739 9.20003 15.4663 8.49365C15.1587 7.78727 14.7144 7.19482 14.1333 6.71631C13.5522 6.2264 12.8345 5.85612 11.98 5.60547C11.1369 5.34342 10.1799 5.2124 9.10889 5.2124C7.229 5.2124 5.81055 5.69092 4.85352 6.64795C3.90788 7.59359 3.43506 9.00635 3.43506 10.8862C3.43506 11.7977 3.57747 12.6351 3.8623 13.3984C4.14714 14.1504 4.5459 14.7998 5.05859 15.3467C5.57129 15.8822 6.18083 16.3037 6.88721 16.6113C7.60498 16.9076 8.39111 17.0557 9.24561 17.0557C10.2254 17.0557 11.1255 16.9076 11.9458 16.6113C12.7661 16.3037 13.4668 15.8765 14.0479 15.3296C14.6403 14.7827 15.1017 14.1333 15.4321 13.3813C15.7625 12.618 15.9277 11.7863 15.9277 10.8862ZM21.0913 10.1489C21.0913 10.0513 21.1336 9.95687 21.2183 9.86572C21.3029 9.76807 21.4136 9.68343 21.5503 9.61182C21.687 9.53369 21.84 9.47184 22.0093 9.42627C22.1851 9.37419 22.3608 9.34814 22.5366 9.34814C22.6343 9.34814 22.7157 9.37419 22.7808 9.42627C22.8524 9.47835 22.9142 9.57926 22.9663 9.729C23.0184 9.87223 23.064 10.0773 23.103 10.3442C23.1486 10.6047 23.1909 10.9465 23.23 11.3696C23.256 11.4998 23.2788 11.6007 23.2983 11.6724C23.3244 11.7375 23.3569 11.77 23.396 11.77C23.4546 11.77 23.5132 11.6691 23.5718 11.4673C24.047 10.0936 24.7339 9.40674 25.6323 9.40674C26.049 9.40674 26.4266 9.53695 26.7651 9.79736C27.1102 10.0578 27.4292 10.4842 27.7222 11.0767C28.0216 11.6626 28.3049 12.4373 28.5718 13.4009C28.8387 14.3579 29.1056 15.5396 29.3726 16.9458C29.3856 17.0174 29.3953 17.0825 29.4019 17.1411C29.4084 17.1997 29.4116 17.255 29.4116 17.3071C29.4116 17.4569 29.3758 17.5871 29.3042 17.6978C29.2391 17.8019 29.1512 17.8898 29.0405 17.9614C28.9299 18.0265 28.8062 18.0754 28.6694 18.1079C28.5327 18.147 28.396 18.1665 28.2593 18.1665C27.9858 18.1665 27.7873 18.1372 27.6636 18.0786C27.5464 18.02 27.4715 17.9093 27.439 17.7466C27.2502 16.757 27.0646 15.8781 26.8823 15.1099C26.7065 14.3416 26.5308 13.6971 26.355 13.1763C26.1857 12.6489 26.0164 12.2485 25.8472 11.9751C25.6779 11.7017 25.5086 11.5649 25.3394 11.5649C25.1701 11.5649 25.0106 11.6724 24.8608 11.8872C24.7176 12.0955 24.5776 12.4243 24.4409 12.8735C24.3042 13.3228 24.1707 13.8924 24.0405 14.5825C23.9168 15.2726 23.7964 16.0962 23.6792 17.0532C23.6466 17.3136 23.5164 17.522 23.2886 17.6782C23.0607 17.8345 22.771 17.9126 22.4194 17.9126C22.1851 17.9126 22.006 17.8638 21.8823 17.7661C21.7586 17.6685 21.6903 17.535 21.6772 17.3657C21.6187 16.0116 21.5535 14.8983 21.4819 14.0259C21.4168 13.147 21.355 12.4438 21.2964 11.9165C21.2378 11.3826 21.189 10.9855 21.1499 10.7251C21.1108 10.4647 21.0913 10.2726 21.0913 10.1489ZM38.7476 15.8911C38.9364 15.7284 39.1219 15.647 39.3042 15.647C39.4084 15.647 39.5028 15.673 39.5874 15.7251C39.672 15.7772 39.7664 15.8586 39.8706 15.9692C39.9683 16.119 40.0366 16.2427 40.0757 16.3403C40.1213 16.4315 40.144 16.5226 40.144 16.6138C40.144 16.8091 40.0464 16.9946 39.8511 17.1704C39.5386 17.4308 39.2 17.6652 38.8354 17.8735C38.4709 18.0754 38.09 18.2479 37.6929 18.3911C37.2957 18.5343 36.8856 18.6418 36.4624 18.7134C36.0392 18.7915 35.6193 18.8306 35.2026 18.8306C34.6753 18.8306 34.1805 18.7622 33.7183 18.6255C33.256 18.4953 32.8426 18.3065 32.478 18.0591C32.12 17.8117 31.8172 17.5155 31.5698 17.1704C31.3224 16.8188 31.1466 16.425 31.0425 15.9888C30.9839 15.8065 30.9285 15.6893 30.8765 15.6372C30.8309 15.5786 30.7528 15.5493 30.6421 15.5493C30.4012 15.5493 30.2157 15.4907 30.0854 15.3735C29.9552 15.2563 29.8901 15.0871 29.8901 14.8657C29.8901 14.7746 29.8966 14.716 29.9097 14.6899L29.9292 14.4946C29.9618 14.2603 30.0236 14.091 30.1147 13.9868C30.2124 13.8826 30.3621 13.8306 30.564 13.8306H30.7104C30.9839 13.8306 31.1759 13.7036 31.2866 13.4497C31.4884 13.0005 31.7456 12.5903 32.0581 12.2192C32.3706 11.8481 32.7222 11.5324 33.1128 11.272C33.5034 11.005 33.9201 10.8 34.3628 10.6567C34.812 10.507 35.2677 10.4321 35.73 10.4321C36.2118 10.4321 36.661 10.5037 37.0776 10.647C37.5008 10.7837 37.8687 10.9757 38.1812 11.2231C38.4937 11.4705 38.7378 11.7603 38.9136 12.0923C39.0959 12.4243 39.187 12.7824 39.187 13.1665C39.187 13.4334 39.1349 13.6776 39.0308 13.8989C38.9266 14.1203 38.7769 14.3156 38.5815 14.4849C38.3862 14.6476 38.1486 14.7811 37.8687 14.8853C37.5952 14.9894 37.2827 15.0578 36.9312 15.0903L33.5425 15.4321C33.4123 15.4321 33.3049 15.4647 33.2202 15.5298C33.1421 15.5949 33.103 15.6828 33.103 15.7935C33.103 15.9627 33.1649 16.1255 33.2886 16.2817C33.4188 16.438 33.5881 16.578 33.7964 16.7017C34.0112 16.8188 34.2554 16.9132 34.5288 16.9849C34.8088 17.0565 35.0952 17.0923 35.3882 17.0923C35.6681 17.0923 35.9546 17.0662 36.2476 17.0142C36.547 16.9556 36.84 16.8742 37.1265 16.77C37.4194 16.6659 37.7026 16.5422 37.9761 16.3989C38.2495 16.2492 38.5067 16.0799 38.7476 15.8911ZM36.5698 13.3716C36.6675 13.3521 36.7521 13.3065 36.8237 13.2349C36.8953 13.1567 36.9312 13.0623 36.9312 12.9517C36.9312 12.854 36.8953 12.7629 36.8237 12.6782C36.7521 12.5936 36.6545 12.5187 36.5308 12.4536C36.4071 12.382 36.2638 12.3267 36.1011 12.2876C35.9383 12.2485 35.7658 12.229 35.5835 12.229C35.3166 12.229 35.0431 12.2681 34.7632 12.3462C34.4832 12.4243 34.2293 12.5285 34.0015 12.6587C33.7736 12.7824 33.5881 12.9224 33.4448 13.0786C33.3016 13.2284 33.23 13.3781 33.23 13.5278C33.23 13.6776 33.3211 13.7524 33.5034 13.7524C33.6141 13.7524 33.7931 13.7394 34.0405 13.7134C34.2879 13.6873 34.5614 13.658 34.8608 13.6255C35.1603 13.5864 35.4631 13.5441 35.769 13.4985C36.075 13.453 36.342 13.4106 36.5698 13.3716ZM39.7192 4.97314C39.5711 4.99593 39.4458 5.01302 39.3433 5.02441C39.2407 5.03581 39.1553 5.0415 39.0869 5.0415C38.6995 5.01872 38.4261 4.91048 38.2666 4.7168C38.1071 4.51172 38.0273 4.17562 38.0273 3.7085C38.0273 2.78564 38.4717 2.20459 39.3604 1.96533C40.1465 1.78304 40.9896 1.65202 41.8896 1.57227C42.7897 1.48112 43.7923 1.43555 44.8975 1.43555C46.3786 1.43555 47.8483 1.57796 49.3066 1.86279C50.7764 2.14762 52.172 2.54069 53.4937 3.04199C54.8267 3.5319 56.0628 4.11865 57.2021 4.80225C58.3415 5.47445 59.327 6.20931 60.1587 7.00684C61.0018 7.79297 61.6569 8.62467 62.124 9.50195C62.6025 10.3678 62.8418 11.2394 62.8418 12.1167C62.8418 13.0054 62.5399 13.8542 61.936 14.6631C61.3436 15.4606 60.5404 16.167 59.5264 16.7822C58.5124 17.3975 57.3389 17.8874 56.0059 18.252C54.6729 18.6165 53.2772 18.7988 51.8188 18.7988C50.6567 18.7988 49.4434 18.6906 48.1787 18.4741C46.9141 18.2576 45.5184 17.9102 43.9917 17.4316C43.2853 17.238 42.9321 16.805 42.9321 16.1328C42.9321 15.9847 42.9663 15.848 43.0347 15.7227C43.103 15.5973 43.1714 15.4777 43.2397 15.3638C43.3195 15.2498 43.3936 15.1416 43.4619 15.0391C43.5303 14.9251 43.5645 14.8112 43.5645 14.6973C43.5645 14.0479 43.5303 13.3529 43.4619 12.6123C43.4049 11.8717 43.3195 11.1312 43.2056 10.3906C43.103 9.65007 42.9777 8.94368 42.8296 8.27148C42.6929 7.58789 42.5505 6.98405 42.4023 6.45996C42.2542 5.93587 42.1004 5.52002 41.9409 5.2124C41.7928 4.89339 41.6561 4.73389 41.5308 4.73389C41.3371 4.73389 41.0978 4.75667 40.813 4.80225C40.5396 4.84782 40.175 4.90479 39.7192 4.97314ZM46.2988 4.69971C45.9684 4.69971 45.8032 4.81364 45.8032 5.0415C45.8032 5.09847 45.8203 5.19531 45.8545 5.33203C45.8887 5.46875 45.9399 5.68522 46.0083 5.98145C46.1108 6.45996 46.2077 6.97266 46.2988 7.51953C46.39 8.06641 46.4811 8.68164 46.5723 9.36523C46.6634 10.0374 46.7489 10.7951 46.8286 11.6382C46.9198 12.4699 47.0109 13.4098 47.1021 14.458C47.1134 14.6289 47.2673 14.7941 47.5635 14.9536C47.8597 15.1017 48.2528 15.2384 48.7427 15.3638C49.2326 15.4777 49.7909 15.5745 50.4175 15.6543C51.0555 15.7227 51.7106 15.7568 52.3828 15.7568C53.2715 15.7568 54.1203 15.6543 54.9292 15.4492C55.7495 15.2327 56.4673 14.9479 57.0825 14.5947C57.7091 14.2415 58.2048 13.8314 58.5693 13.3643C58.9453 12.8971 59.1333 12.4129 59.1333 11.9116C59.1333 11.0799 58.8029 10.271 58.1421 9.48486C57.4927 8.69873 56.5926 7.98665 55.4419 7.34863C54.2912 6.69922 52.9354 6.14665 51.3745 5.69092C49.8136 5.2238 48.1217 4.89339 46.2988 4.69971ZM69.7339 9.49463C70.092 9.49463 70.437 9.54997 70.769 9.66064C71.1011 9.77132 71.394 9.92432 71.6479 10.1196C71.9019 10.3149 72.1037 10.5493 72.2534 10.8228C72.4097 11.0962 72.4878 11.3989 72.4878 11.731C72.4878 11.8677 72.4552 12.0011 72.3901 12.1313C72.3315 12.255 72.2502 12.3657 72.146 12.4634C72.0418 12.5545 71.9214 12.6294 71.7847 12.688C71.6545 12.7401 71.5177 12.7661 71.3745 12.7661C71.3615 12.7661 71.3485 12.7694 71.3354 12.7759C71.3289 12.7759 71.3192 12.7759 71.3062 12.7759C71.2931 12.7824 71.2801 12.7856 71.2671 12.7856L71.3062 13.5669C71.3322 14.4979 71.4624 15.1782 71.6968 15.6079C71.9377 16.0376 72.2502 16.2524 72.6343 16.2524C72.771 16.2524 72.8914 16.2394 72.9956 16.2134C73.1063 16.1873 73.2072 16.158 73.2983 16.1255C73.396 16.0864 73.4871 16.0539 73.5718 16.0278C73.6564 16.0018 73.741 15.9888 73.8257 15.9888C73.9754 15.9888 74.1056 16.0539 74.2163 16.1841C74.3335 16.3143 74.3921 16.4705 74.3921 16.6528C74.3921 16.8351 74.3205 17.0174 74.1772 17.1997C74.0405 17.382 73.8582 17.548 73.6304 17.6978C73.4025 17.841 73.1453 17.9582 72.8589 18.0493C72.5724 18.1405 72.2827 18.186 71.9897 18.186C71.4819 18.186 71.036 17.9777 70.6519 17.561C70.2677 17.1379 69.9943 16.5194 69.8315 15.7056C69.7925 15.5754 69.7404 15.5103 69.6753 15.5103C69.5972 15.5103 69.5288 15.5493 69.4702 15.6274C68.8257 16.4412 68.1388 17.0532 67.4097 17.4634C66.6805 17.867 65.9611 18.0688 65.2515 18.0688C64.9194 18.0688 64.62 18.02 64.353 17.9224C64.0861 17.8247 63.8582 17.688 63.6694 17.5122C63.4871 17.3299 63.3439 17.1118 63.2397 16.8579C63.1421 16.5975 63.0933 16.3078 63.0933 15.9888C63.0933 15.5396 63.1909 15.0675 63.3862 14.5728C63.5881 14.078 63.8582 13.5897 64.1968 13.1079C64.5353 12.6261 64.9259 12.1672 65.3687 11.731C65.8179 11.2948 66.2866 10.9106 66.7749 10.5786C67.2697 10.2466 67.771 9.98291 68.2788 9.7876C68.7866 9.59229 69.2716 9.49463 69.7339 9.49463ZM69.4116 12.8735C69.5288 12.6522 69.6362 12.4927 69.7339 12.395C69.8315 12.2909 69.9715 12.2225 70.1538 12.1899C70.297 12.1704 70.3687 12.1248 70.3687 12.0532C70.3687 12.0011 70.3491 11.9458 70.3101 11.8872C70.1864 11.7179 70.0562 11.5715 69.9194 11.4478C69.7827 11.3175 69.6004 11.2524 69.3726 11.2524C69.1252 11.2524 68.8485 11.3241 68.5425 11.4673C68.2365 11.6105 67.924 11.8026 67.605 12.0435C67.2925 12.2778 66.9832 12.548 66.6772 12.854C66.3778 13.1535 66.1108 13.4627 65.8765 13.7817C65.6421 14.1007 65.4533 14.4165 65.3101 14.729C65.1668 15.0415 65.0952 15.3215 65.0952 15.5688C65.0952 15.7902 65.1538 15.9627 65.271 16.0864C65.3947 16.2101 65.5607 16.272 65.769 16.272C66.3029 16.272 66.8856 15.9888 67.5171 15.4224C68.1486 14.856 68.7801 14.0063 69.4116 12.8735ZM78.7866 18.2935C78.396 18.2935 78.0054 18.1991 77.6147 18.0103C77.2241 17.8149 76.8498 17.5513 76.4917 17.2192C76.1336 16.8872 75.8016 16.4966 75.4956 16.0474C75.1896 15.5916 74.9227 15.1034 74.6948 14.5825C74.467 14.0552 74.2879 13.505 74.1577 12.9321C74.0275 12.3592 73.9624 11.7863 73.9624 11.2134C73.9624 10.7707 74.0535 10.4549 74.2358 10.2661C74.4181 10.0708 74.7144 9.97314 75.1245 9.97314C75.6388 9.97314 75.9253 10.1847 75.9839 10.6079C76.1011 11.5063 76.2638 12.3169 76.4722 13.0396C76.6805 13.7622 76.9246 14.3774 77.2046 14.8853C77.491 15.3931 77.8068 15.7837 78.1519 16.0571C78.5034 16.3306 78.8745 16.4673 79.2651 16.4673C79.5451 16.4673 79.8088 16.3989 80.0562 16.2622C80.3035 16.119 80.5184 15.9204 80.7007 15.6665C80.7658 15.5688 80.8081 15.4744 80.8276 15.3833C80.8537 15.2922 80.8732 15.188 80.8862 15.0708C80.9188 14.6086 80.9546 14.1561 80.9937 13.7134C81.0392 13.2642 81.0815 12.8149 81.1206 12.3657C81.1336 12.1704 81.1597 12.0109 81.1987 11.8872C81.2378 11.7635 81.2964 11.6659 81.3745 11.5942C81.4526 11.5226 81.5535 11.4738 81.6772 11.4478C81.8075 11.4217 81.9702 11.4087 82.1655 11.4087C82.3869 11.4087 82.5757 11.4412 82.7319 11.5063C82.8882 11.5649 83.0151 11.6659 83.1128 11.8091C83.2104 11.9458 83.2788 12.1281 83.3179 12.356C83.3634 12.5773 83.3862 12.854 83.3862 13.186C83.3862 13.4725 83.3634 13.7231 83.3179 13.938C83.2788 14.1463 83.23 14.3449 83.1714 14.5337C83.1193 14.716 83.0672 14.8983 83.0151 15.0806C82.9696 15.2563 82.9403 15.4517 82.9272 15.6665C82.8947 16.2069 82.8654 16.6756 82.8394 17.0728C82.8133 17.4634 82.7905 17.7987 82.771 18.0786C82.758 18.3586 82.745 18.5994 82.7319 18.8013C82.7254 19.0031 82.7189 19.1821 82.7124 19.3384C82.7059 19.5011 82.7026 19.6541 82.7026 19.7974C82.7026 19.9406 82.7026 20.0968 82.7026 20.2661C82.7026 20.5721 82.7157 20.9041 82.7417 21.2622C82.7677 21.6268 82.7938 21.9751 82.8198 22.3071C82.8524 22.6392 82.8817 22.9321 82.9077 23.186C82.9338 23.4399 82.9468 23.6157 82.9468 23.7134C82.9468 23.8371 82.9077 23.9543 82.8296 24.0649C82.7515 24.1756 82.6473 24.2733 82.5171 24.3579C82.3869 24.4425 82.2339 24.5076 82.0581 24.5532C81.8823 24.6053 81.6968 24.6313 81.5015 24.6313C81.3322 24.6313 81.1955 24.5728 81.0913 24.4556C80.9937 24.3449 80.9383 24.1951 80.9253 24.0063C80.9058 23.759 80.8895 23.4562 80.8765 23.0981C80.8634 22.7466 80.8504 22.369 80.8374 21.9653C80.8244 21.5682 80.8146 21.1613 80.8081 20.7446C80.8081 20.3345 80.8049 19.9504 80.7983 19.5923C80.7918 19.2407 80.7886 18.9315 80.7886 18.6646C80.7886 18.3976 80.7886 18.2056 80.7886 18.0884C80.7886 17.9712 80.7756 17.8898 80.7495 17.8442C80.7235 17.7922 80.6746 17.7661 80.603 17.7661C80.564 17.7661 80.5119 17.7791 80.4468 17.8052C80.3817 17.8247 80.3068 17.8605 80.2222 17.9126C79.9943 18.0493 79.7632 18.147 79.5288 18.2056C79.2944 18.2642 79.047 18.2935 78.7866 18.2935ZM83.5083 4.97314C83.3602 4.99593 83.2349 5.01302 83.1323 5.02441C83.0298 5.03581 82.9443 5.0415 82.876 5.0415C82.4886 5.01872 82.2152 4.91048 82.0557 4.7168C81.8962 4.51172 81.8164 4.17562 81.8164 3.7085C81.8164 2.78564 82.2607 2.20459 83.1494 1.96533C83.9355 1.78304 84.7786 1.65202 85.6787 1.57227C86.5788 1.48112 87.5814 1.43555 88.6865 1.43555C90.1676 1.43555 91.6374 1.57796 93.0957 1.86279C94.5654 2.14762 95.9611 2.54069 97.2827 3.04199C98.6157 3.5319 99.8519 4.11865 100.991 4.80225C102.131 5.47445 103.116 6.20931 103.948 7.00684C104.791 7.79297 105.446 8.62467 105.913 9.50195C106.392 10.3678 106.631 11.2394 106.631 12.1167C106.631 13.0054 106.329 13.8542 105.725 14.6631C105.133 15.4606 104.329 16.167 103.315 16.7822C102.301 17.3975 101.128 17.8874 99.7949 18.252C98.4619 18.6165 97.0662 18.7988 95.6079 18.7988C94.4458 18.7988 93.2324 18.6906 91.9678 18.4741C90.7031 18.2576 89.3075 17.9102 87.7808 17.4316C87.0744 17.238 86.7212 16.805 86.7212 16.1328C86.7212 15.9847 86.7554 15.848 86.8237 15.7227C86.8921 15.5973 86.9604 15.4777 87.0288 15.3638C87.1086 15.2498 87.1826 15.1416 87.251 15.0391C87.3193 14.9251 87.3535 14.8112 87.3535 14.6973C87.3535 14.0479 87.3193 13.3529 87.251 12.6123C87.194 11.8717 87.1086 11.1312 86.9946 10.3906C86.8921 9.65007 86.7668 8.94368 86.6187 8.27148C86.4819 7.58789 86.3395 6.98405 86.1914 6.45996C86.0433 5.93587 85.8895 5.52002 85.73 5.2124C85.5819 4.89339 85.4451 4.73389 85.3198 4.73389C85.1261 4.73389 84.8869 4.75667 84.6021 4.80225C84.3286 4.84782 83.964 4.90479 83.5083 4.97314ZM90.0879 4.69971C89.7575 4.69971 89.5923 4.81364 89.5923 5.0415C89.5923 5.09847 89.6094 5.19531 89.6436 5.33203C89.6777 5.46875 89.729 5.68522 89.7974 5.98145C89.8999 6.45996 89.9967 6.97266 90.0879 7.51953C90.179 8.06641 90.2702 8.68164 90.3613 9.36523C90.4525 10.0374 90.5379 10.7951 90.6177 11.6382C90.7088 12.4699 90.8 13.4098 90.8911 14.458C90.9025 14.6289 91.0563 14.7941 91.3525 14.9536C91.6488 15.1017 92.0418 15.2384 92.5317 15.3638C93.0216 15.4777 93.5799 15.5745 94.2065 15.6543C94.8446 15.7227 95.4997 15.7568 96.1719 15.7568C97.0605 15.7568 97.9093 15.6543 98.7183 15.4492C99.5386 15.2327 100.256 14.9479 100.872 14.5947C101.498 14.2415 101.994 13.8314 102.358 13.3643C102.734 12.8971 102.922 12.4129 102.922 11.9116C102.922 11.0799 102.592 10.271 101.931 9.48486C101.282 8.69873 100.382 7.98665 99.231 7.34863C98.0802 6.69922 96.7244 6.14665 95.1636 5.69092C93.6027 5.2238 91.9108 4.89339 90.0879 4.69971ZM113.523 9.49463C113.881 9.49463 114.226 9.54997 114.558 9.66064C114.89 9.77132 115.183 9.92432 115.437 10.1196C115.691 10.3149 115.893 10.5493 116.042 10.8228C116.199 11.0962 116.277 11.3989 116.277 11.731C116.277 11.8677 116.244 12.0011 116.179 12.1313C116.121 12.255 116.039 12.3657 115.935 12.4634C115.831 12.5545 115.71 12.6294 115.574 12.688C115.444 12.7401 115.307 12.7661 115.164 12.7661C115.151 12.7661 115.138 12.7694 115.125 12.7759C115.118 12.7759 115.108 12.7759 115.095 12.7759C115.082 12.7824 115.069 12.7856 115.056 12.7856L115.095 13.5669C115.121 14.4979 115.251 15.1782 115.486 15.6079C115.727 16.0376 116.039 16.2524 116.423 16.2524C116.56 16.2524 116.681 16.2394 116.785 16.2134C116.895 16.1873 116.996 16.158 117.087 16.1255C117.185 16.0864 117.276 16.0539 117.361 16.0278C117.445 16.0018 117.53 15.9888 117.615 15.9888C117.764 15.9888 117.895 16.0539 118.005 16.1841C118.123 16.3143 118.181 16.4705 118.181 16.6528C118.181 16.8351 118.11 17.0174 117.966 17.1997C117.83 17.382 117.647 17.548 117.419 17.6978C117.192 17.841 116.934 17.9582 116.648 18.0493C116.361 18.1405 116.072 18.186 115.779 18.186C115.271 18.186 114.825 17.9777 114.441 17.561C114.057 17.1379 113.783 16.5194 113.621 15.7056C113.582 15.5754 113.529 15.5103 113.464 15.5103C113.386 15.5103 113.318 15.5493 113.259 15.6274C112.615 16.4412 111.928 17.0532 111.199 17.4634C110.47 17.867 109.75 18.0688 109.041 18.0688C108.708 18.0688 108.409 18.02 108.142 17.9224C107.875 17.8247 107.647 17.688 107.458 17.5122C107.276 17.3299 107.133 17.1118 107.029 16.8579C106.931 16.5975 106.882 16.3078 106.882 15.9888C106.882 15.5396 106.98 15.0675 107.175 14.5728C107.377 14.078 107.647 13.5897 107.986 13.1079C108.324 12.6261 108.715 12.1672 109.158 11.731C109.607 11.2948 110.076 10.9106 110.564 10.5786C111.059 10.2466 111.56 9.98291 112.068 9.7876C112.576 9.59229 113.061 9.49463 113.523 9.49463ZM113.201 12.8735C113.318 12.6522 113.425 12.4927 113.523 12.395C113.621 12.2909 113.761 12.2225 113.943 12.1899C114.086 12.1704 114.158 12.1248 114.158 12.0532C114.158 12.0011 114.138 11.9458 114.099 11.8872C113.975 11.7179 113.845 11.5715 113.708 11.4478C113.572 11.3175 113.389 11.2524 113.162 11.2524C112.914 11.2524 112.638 11.3241 112.332 11.4673C112.026 11.6105 111.713 11.8026 111.394 12.0435C111.082 12.2778 110.772 12.548 110.466 12.854C110.167 13.1535 109.9 13.4627 109.666 13.7817C109.431 14.1007 109.242 14.4165 109.099 14.729C108.956 15.0415 108.884 15.3215 108.884 15.5688C108.884 15.7902 108.943 15.9627 109.06 16.0864C109.184 16.2101 109.35 16.272 109.558 16.272C110.092 16.272 110.675 15.9888 111.306 15.4224C111.938 14.856 112.569 14.0063 113.201 12.8735ZM118.669 10.1489C118.669 10.0513 118.712 9.95687 118.796 9.86572C118.881 9.76807 118.992 9.68343 119.128 9.61182C119.265 9.53369 119.418 9.47184 119.587 9.42627C119.763 9.37419 119.939 9.34814 120.115 9.34814C120.212 9.34814 120.294 9.37419 120.359 9.42627C120.431 9.47835 120.492 9.57926 120.544 9.729C120.597 9.87223 120.642 10.0773 120.681 10.3442C120.727 10.6047 120.769 10.9465 120.808 11.3696C120.834 11.4998 120.857 11.6007 120.876 11.6724C120.903 11.7375 120.935 11.77 120.974 11.77C121.033 11.77 121.091 11.6691 121.15 11.4673C121.625 10.0936 122.312 9.40674 123.21 9.40674C123.627 9.40674 124.005 9.53695 124.343 9.79736C124.688 10.0578 125.007 10.4842 125.3 11.0767C125.6 11.6626 125.883 12.4373 126.15 13.4009C126.417 14.3579 126.684 15.5396 126.951 16.9458C126.964 17.0174 126.973 17.0825 126.98 17.1411C126.986 17.1997 126.99 17.255 126.99 17.3071C126.99 17.4569 126.954 17.5871 126.882 17.6978C126.817 17.8019 126.729 17.8898 126.619 17.9614C126.508 18.0265 126.384 18.0754 126.248 18.1079C126.111 18.147 125.974 18.1665 125.837 18.1665C125.564 18.1665 125.365 18.1372 125.242 18.0786C125.125 18.02 125.05 17.9093 125.017 17.7466C124.828 16.757 124.643 15.8781 124.46 15.1099C124.285 14.3416 124.109 13.6971 123.933 13.1763C123.764 12.6489 123.595 12.2485 123.425 11.9751C123.256 11.7017 123.087 11.5649 122.917 11.5649C122.748 11.5649 122.589 11.6724 122.439 11.8872C122.296 12.0955 122.156 12.4243 122.019 12.8735C121.882 13.3228 121.749 13.8924 121.619 14.5825C121.495 15.2726 121.375 16.0962 121.257 17.0532C121.225 17.3136 121.095 17.522 120.867 17.6782C120.639 17.8345 120.349 17.9126 119.998 17.9126C119.763 17.9126 119.584 17.8638 119.46 17.7661C119.337 17.6685 119.268 17.535 119.255 17.3657C119.197 16.0116 119.132 14.8983 119.06 14.0259C118.995 13.147 118.933 12.4438 118.875 11.9165C118.816 11.3826 118.767 10.9855 118.728 10.7251C118.689 10.4647 118.669 10.2726 118.669 10.1489ZM131.462 9.97314C131.801 9.97314 132.13 10.022 132.449 10.1196C132.768 10.2173 133.048 10.3507 133.289 10.52C133.536 10.6828 133.735 10.8716 133.884 11.0864C134.034 11.2948 134.109 11.5096 134.109 11.731C134.109 11.8742 134.08 12.0142 134.021 12.1509C133.962 12.2811 133.884 12.3983 133.787 12.5024C133.689 12.6001 133.578 12.6815 133.455 12.7466C133.331 12.8052 133.201 12.8345 133.064 12.8345C132.914 12.8345 132.778 12.7791 132.654 12.6685C132.53 12.5513 132.397 12.4243 132.253 12.2876C132.117 12.1444 131.96 12.0174 131.785 11.9067C131.615 11.7896 131.41 11.731 131.169 11.731C130.935 11.731 130.723 11.7863 130.535 11.897C130.346 12.0076 130.186 12.1639 130.056 12.3657C129.932 12.561 129.835 12.7954 129.763 13.0688C129.698 13.3358 129.666 13.6287 129.666 13.9478C129.666 14.8592 129.838 15.5558 130.183 16.0376C130.528 16.5129 131.023 16.7505 131.667 16.7505C131.973 16.7505 132.234 16.7017 132.449 16.604C132.67 16.5063 132.862 16.3989 133.025 16.2817C133.194 16.1646 133.347 16.0571 133.484 15.9595C133.621 15.8618 133.761 15.813 133.904 15.813C133.982 15.813 134.06 15.839 134.138 15.8911C134.216 15.9367 134.285 15.9985 134.343 16.0767C134.408 16.1483 134.46 16.2297 134.5 16.3208C134.545 16.4119 134.568 16.5031 134.568 16.5942C134.568 16.8091 134.46 17.0304 134.246 17.2583C134.037 17.4862 133.767 17.6945 133.435 17.8833C133.103 18.0656 132.732 18.2153 132.322 18.3325C131.918 18.4497 131.524 18.5083 131.14 18.5083C130.626 18.5083 130.154 18.4074 129.724 18.2056C129.294 18.0103 128.923 17.7368 128.611 17.3853C128.298 17.0272 128.054 16.6007 127.878 16.106C127.709 15.6112 127.625 15.0643 127.625 14.4653C127.625 13.8143 127.719 13.2153 127.908 12.6685C128.103 12.1216 128.37 11.6496 128.708 11.2524C129.054 10.8488 129.46 10.5363 129.929 10.3149C130.398 10.0871 130.909 9.97314 131.462 9.97314ZM143.123 15.8911C143.311 15.7284 143.497 15.647 143.679 15.647C143.783 15.647 143.878 15.673 143.962 15.7251C144.047 15.7772 144.141 15.8586 144.246 15.9692C144.343 16.119 144.412 16.2427 144.451 16.3403C144.496 16.4315 144.519 16.5226 144.519 16.6138C144.519 16.8091 144.421 16.9946 144.226 17.1704C143.914 17.4308 143.575 17.6652 143.21 17.8735C142.846 18.0754 142.465 18.2479 142.068 18.3911C141.671 18.5343 141.261 18.6418 140.837 18.7134C140.414 18.7915 139.994 18.8306 139.578 18.8306C139.05 18.8306 138.556 18.7622 138.093 18.6255C137.631 18.4953 137.218 18.3065 136.853 18.0591C136.495 17.8117 136.192 17.5155 135.945 17.1704C135.697 16.8188 135.522 16.425 135.417 15.9888C135.359 15.8065 135.304 15.6893 135.251 15.6372C135.206 15.5786 135.128 15.5493 135.017 15.5493C134.776 15.5493 134.591 15.4907 134.46 15.3735C134.33 15.2563 134.265 15.0871 134.265 14.8657C134.265 14.7746 134.272 14.716 134.285 14.6899L134.304 14.4946C134.337 14.2603 134.399 14.091 134.49 13.9868C134.587 13.8826 134.737 13.8306 134.939 13.8306H135.085C135.359 13.8306 135.551 13.7036 135.662 13.4497C135.863 13.0005 136.121 12.5903 136.433 12.2192C136.746 11.8481 137.097 11.5324 137.488 11.272C137.878 11.005 138.295 10.8 138.738 10.6567C139.187 10.507 139.643 10.4321 140.105 10.4321C140.587 10.4321 141.036 10.5037 141.453 10.647C141.876 10.7837 142.244 10.9757 142.556 11.2231C142.869 11.4705 143.113 11.7603 143.289 12.0923C143.471 12.4243 143.562 12.7824 143.562 13.1665C143.562 13.4334 143.51 13.6776 143.406 13.8989C143.302 14.1203 143.152 14.3156 142.957 14.4849C142.761 14.6476 142.524 14.7811 142.244 14.8853C141.97 14.9894 141.658 15.0578 141.306 15.0903L137.917 15.4321C137.787 15.4321 137.68 15.4647 137.595 15.5298C137.517 15.5949 137.478 15.6828 137.478 15.7935C137.478 15.9627 137.54 16.1255 137.664 16.2817C137.794 16.438 137.963 16.578 138.171 16.7017C138.386 16.8188 138.63 16.9132 138.904 16.9849C139.184 17.0565 139.47 17.0923 139.763 17.0923C140.043 17.0923 140.33 17.0662 140.623 17.0142C140.922 16.9556 141.215 16.8742 141.501 16.77C141.794 16.6659 142.078 16.5422 142.351 16.3989C142.625 16.2492 142.882 16.0799 143.123 15.8911ZM140.945 13.3716C141.042 13.3521 141.127 13.3065 141.199 13.2349C141.27 13.1567 141.306 13.0623 141.306 12.9517C141.306 12.854 141.27 12.7629 141.199 12.6782C141.127 12.5936 141.029 12.5187 140.906 12.4536C140.782 12.382 140.639 12.3267 140.476 12.2876C140.313 12.2485 140.141 12.229 139.958 12.229C139.692 12.229 139.418 12.2681 139.138 12.3462C138.858 12.4243 138.604 12.5285 138.376 12.6587C138.149 12.7824 137.963 12.9224 137.82 13.0786C137.677 13.2284 137.605 13.3781 137.605 13.5278C137.605 13.6776 137.696 13.7524 137.878 13.7524C137.989 13.7524 138.168 13.7394 138.416 13.7134C138.663 13.6873 138.936 13.658 139.236 13.6255C139.535 13.5864 139.838 13.5441 140.144 13.4985C140.45 13.453 140.717 13.4106 140.945 13.3716ZM152.947 3.12744C152.309 3.12744 151.716 3.28125 151.169 3.58887C150.634 3.88509 150.161 4.30094 149.751 4.83643C149.352 5.36051 149.039 5.98145 148.811 6.69922C148.583 7.41699 148.469 8.18604 148.469 9.00635C148.469 9.84945 148.657 10.6299 149.033 11.3477C149.421 12.054 149.95 12.675 150.623 13.2104C151.306 13.7345 152.104 14.1447 153.015 14.4409C153.938 14.7371 154.941 14.8853 156.023 14.8853C156.809 14.8853 157.55 14.8169 158.245 14.6802C158.951 14.5321 159.566 14.3384 160.09 14.0991C160.614 13.8599 161.03 13.5807 161.338 13.2617C161.646 12.9313 161.799 12.5838 161.799 12.2192C161.799 11.9344 161.748 11.7008 161.646 11.5186C161.543 11.3249 161.423 11.154 161.287 11.0059C161.161 10.8464 161.047 10.6925 160.945 10.5444C160.842 10.3849 160.791 10.1855 160.791 9.94629C160.791 9.71842 160.848 9.50195 160.962 9.29688C161.076 9.0918 161.23 8.90951 161.423 8.75C161.628 8.59049 161.856 8.46517 162.107 8.37402C162.369 8.28288 162.637 8.2373 162.91 8.2373C163.241 8.2373 163.548 8.32275 163.833 8.49365C164.129 8.66455 164.38 8.90381 164.585 9.21143C164.801 9.50765 164.967 9.86084 165.081 10.271C165.206 10.6698 165.269 11.097 165.269 11.5527C165.269 12.4756 165.024 13.3358 164.534 14.1333C164.044 14.9194 163.366 15.5973 162.5 16.167C161.634 16.7367 160.609 17.1867 159.424 17.5171C158.239 17.8361 156.951 17.9956 155.562 17.9956C154.023 17.9956 152.605 17.7905 151.306 17.3804C150.007 16.9588 148.885 16.3778 147.939 15.6372C147.005 14.8966 146.276 14.0194 145.752 13.0054C145.228 11.9914 144.966 10.8805 144.966 9.67285C144.966 8.35124 145.194 7.10368 145.649 5.93018C146.117 4.75667 146.749 3.73128 147.546 2.854C148.344 1.97673 149.272 1.28174 150.332 0.769043C151.403 0.256348 152.542 0 153.75 0C154.285 0 154.775 0.0626628 155.22 0.187988C155.675 0.301921 156.069 0.467122 156.399 0.683594C156.729 0.900065 156.986 1.15641 157.168 1.45264C157.362 1.73747 157.458 2.05078 157.458 2.39258C157.458 2.66602 157.396 2.92806 157.271 3.17871C157.157 3.41797 157.003 3.63444 156.809 3.82812C156.615 4.01042 156.388 4.15853 156.125 4.27246C155.875 4.38639 155.607 4.44336 155.322 4.44336C155.026 4.44336 154.787 4.375 154.604 4.23828C154.434 4.10156 154.274 3.95345 154.126 3.79395C153.978 3.62305 153.818 3.46924 153.647 3.33252C153.477 3.1958 153.243 3.12744 152.947 3.12744ZM165.959 6.90674C165.959 6.5682 166.057 6.32731 166.252 6.18408C166.448 6.04085 166.77 5.96924 167.219 5.96924C167.375 5.96924 167.512 5.98551 167.629 6.01807C167.747 6.05062 167.844 6.10596 167.922 6.18408C168 6.2557 168.062 6.35661 168.108 6.48682C168.16 6.61051 168.202 6.77002 168.235 6.96533C168.319 7.54476 168.404 8.15348 168.489 8.7915C168.58 9.42301 168.665 10.0545 168.743 10.686C168.827 11.311 168.905 11.923 168.977 12.522C169.049 13.1144 169.111 13.6678 169.163 14.1821C169.221 14.6899 169.264 15.1424 169.29 15.5396C169.322 15.9302 169.338 16.2394 169.338 16.4673C169.338 16.7017 169.316 16.9002 169.27 17.063C169.231 17.2257 169.159 17.356 169.055 17.4536C168.958 17.5513 168.827 17.6229 168.665 17.6685C168.508 17.7075 168.313 17.7271 168.079 17.7271C167.851 17.7271 167.668 17.6685 167.532 17.5513C167.402 17.4341 167.336 17.255 167.336 17.0142C167.336 16.7668 167.317 16.438 167.278 16.0278C167.239 15.6112 167.187 15.1489 167.122 14.6411C167.056 14.1333 166.982 13.5929 166.897 13.02C166.819 12.4471 166.734 11.8807 166.643 11.3208C166.558 10.7609 166.474 10.2238 166.389 9.70947C166.311 9.18864 166.239 8.72965 166.174 8.33252C166.109 7.92887 166.057 7.6001 166.018 7.34619C165.979 7.08577 165.959 6.93929 165.959 6.90674ZM177.034 9.49463C177.392 9.49463 177.737 9.54997 178.069 9.66064C178.401 9.77132 178.694 9.92432 178.948 10.1196C179.202 10.3149 179.403 10.5493 179.553 10.8228C179.709 11.0962 179.788 11.3989 179.788 11.731C179.788 11.8677 179.755 12.0011 179.69 12.1313C179.631 12.255 179.55 12.3657 179.446 12.4634C179.342 12.5545 179.221 12.6294 179.084 12.688C178.954 12.7401 178.818 12.7661 178.674 12.7661C178.661 12.7661 178.648 12.7694 178.635 12.7759C178.629 12.7759 178.619 12.7759 178.606 12.7759C178.593 12.7824 178.58 12.7856 178.567 12.7856L178.606 13.5669C178.632 14.4979 178.762 15.1782 178.997 15.6079C179.237 16.0376 179.55 16.2524 179.934 16.2524C180.071 16.2524 180.191 16.2394 180.295 16.2134C180.406 16.1873 180.507 16.158 180.598 16.1255C180.696 16.0864 180.787 16.0539 180.872 16.0278C180.956 16.0018 181.041 15.9888 181.125 15.9888C181.275 15.9888 181.405 16.0539 181.516 16.1841C181.633 16.3143 181.692 16.4705 181.692 16.6528C181.692 16.8351 181.62 17.0174 181.477 17.1997C181.34 17.382 181.158 17.548 180.93 17.6978C180.702 17.841 180.445 17.9582 180.159 18.0493C179.872 18.1405 179.583 18.186 179.29 18.186C178.782 18.186 178.336 17.9777 177.952 17.561C177.568 17.1379 177.294 16.5194 177.131 15.7056C177.092 15.5754 177.04 15.5103 176.975 15.5103C176.897 15.5103 176.829 15.5493 176.77 15.6274C176.125 16.4412 175.439 17.0532 174.709 17.4634C173.98 17.867 173.261 18.0688 172.551 18.0688C172.219 18.0688 171.92 18.02 171.653 17.9224C171.386 17.8247 171.158 17.688 170.969 17.5122C170.787 17.3299 170.644 17.1118 170.54 16.8579C170.442 16.5975 170.393 16.3078 170.393 15.9888C170.393 15.5396 170.491 15.0675 170.686 14.5728C170.888 14.078 171.158 13.5897 171.497 13.1079C171.835 12.6261 172.226 12.1672 172.668 11.731C173.118 11.2948 173.586 10.9106 174.075 10.5786C174.569 10.2466 175.071 9.98291 175.579 9.7876C176.086 9.59229 176.571 9.49463 177.034 9.49463ZM176.711 12.8735C176.829 12.6522 176.936 12.4927 177.034 12.395C177.131 12.2909 177.271 12.2225 177.454 12.1899C177.597 12.1704 177.668 12.1248 177.668 12.0532C177.668 12.0011 177.649 11.9458 177.61 11.8872C177.486 11.7179 177.356 11.5715 177.219 11.4478C177.083 11.3175 176.9 11.2524 176.672 11.2524C176.425 11.2524 176.148 11.3241 175.842 11.4673C175.536 11.6105 175.224 11.8026 174.905 12.0435C174.592 12.2778 174.283 12.548 173.977 12.854C173.678 13.1535 173.411 13.4627 173.176 13.7817C172.942 14.1007 172.753 14.4165 172.61 14.729C172.467 15.0415 172.395 15.3215 172.395 15.5688C172.395 15.7902 172.454 15.9627 172.571 16.0864C172.694 16.2101 172.861 16.272 173.069 16.272C173.603 16.272 174.185 15.9888 174.817 15.4224C175.448 14.856 176.08 14.0063 176.711 12.8735ZM184.446 9.55322C184.882 9.55322 185.331 9.61182 185.793 9.729C186.256 9.83968 186.679 9.98617 187.063 10.1685C187.447 10.3442 187.763 10.5428 188.01 10.7642C188.258 10.9855 188.381 11.2004 188.381 11.4087C188.381 11.5129 188.336 11.63 188.245 11.7603C188.153 11.884 188.043 12.0044 187.913 12.1216C187.782 12.2323 187.639 12.3267 187.483 12.4048C187.333 12.4764 187.2 12.5122 187.083 12.5122C186.926 12.5122 186.75 12.4471 186.555 12.3169C186.366 12.1867 186.155 12.0435 185.92 11.8872C185.693 11.7244 185.442 11.578 185.168 11.4478C184.895 11.3175 184.599 11.2524 184.28 11.2524C184.071 11.2524 183.899 11.3045 183.762 11.4087C183.632 11.5063 183.567 11.6463 183.567 11.8286C183.567 11.9914 183.645 12.1574 183.801 12.3267C183.958 12.4894 184.163 12.6587 184.417 12.8345C184.677 13.0103 184.97 13.1958 185.295 13.3911C185.621 13.5864 185.953 13.7948 186.292 14.0161C186.637 14.2375 186.972 14.4784 187.297 14.7388C187.623 14.9992 187.913 15.2824 188.167 15.5884C188.427 15.8944 188.635 16.2297 188.792 16.5942C188.948 16.9523 189.026 17.3429 189.026 17.7661C189.026 18.1307 188.961 18.4627 188.831 18.7622C188.7 19.0617 188.515 19.3188 188.274 19.5337C188.033 19.7485 187.747 19.9146 187.415 20.0317C187.083 20.1489 186.718 20.2075 186.321 20.2075C185.819 20.2075 185.357 20.1294 184.934 19.9731C184.511 19.8234 184.146 19.6151 183.84 19.3481C183.534 19.0812 183.293 18.7622 183.118 18.3911C182.948 18.02 182.864 17.6131 182.864 17.1704C182.864 16.5975 182.965 16.1808 183.167 15.9204C183.375 15.66 183.7 15.5298 184.143 15.5298C184.417 15.5298 184.635 15.5819 184.797 15.686C184.96 15.7902 185.042 15.9172 185.042 16.0669C185.042 16.145 185.028 16.2264 185.002 16.311C184.976 16.3892 184.947 16.4738 184.915 16.5649C184.889 16.6496 184.862 16.7407 184.836 16.8384C184.817 16.936 184.807 17.0337 184.807 17.1313C184.807 17.3006 184.846 17.4634 184.924 17.6196C185.002 17.7759 185.107 17.9126 185.237 18.0298C185.374 18.1535 185.53 18.2511 185.706 18.3228C185.881 18.3944 186.067 18.4302 186.262 18.4302C186.783 18.4302 187.043 18.2153 187.043 17.7856C187.043 17.4471 186.91 17.1281 186.643 16.8286C186.376 16.5226 186.041 16.2264 185.637 15.9399C185.234 15.647 184.797 15.354 184.329 15.061C183.866 14.7681 183.433 14.4621 183.03 14.1431C182.626 13.8241 182.291 13.4855 182.024 13.1274C181.757 12.7629 181.624 12.369 181.624 11.9458C181.624 11.5942 181.695 11.272 181.838 10.979C181.988 10.686 182.19 10.4354 182.444 10.2271C182.698 10.0122 182.994 9.84619 183.333 9.729C183.678 9.61182 184.049 9.55322 184.446 9.55322ZM191.809 9.55322C192.245 9.55322 192.694 9.61182 193.157 9.729C193.619 9.83968 194.042 9.98617 194.426 10.1685C194.81 10.3442 195.126 10.5428 195.374 10.7642C195.621 10.9855 195.745 11.2004 195.745 11.4087C195.745 11.5129 195.699 11.63 195.608 11.7603C195.517 11.884 195.406 12.0044 195.276 12.1216C195.146 12.2323 195.002 12.3267 194.846 12.4048C194.696 12.4764 194.563 12.5122 194.446 12.5122C194.29 12.5122 194.114 12.4471 193.918 12.3169C193.73 12.1867 193.518 12.0435 193.284 11.8872C193.056 11.7244 192.805 11.578 192.532 11.4478C192.258 11.3175 191.962 11.2524 191.643 11.2524C191.435 11.2524 191.262 11.3045 191.125 11.4087C190.995 11.5063 190.93 11.6463 190.93 11.8286C190.93 11.9914 191.008 12.1574 191.165 12.3267C191.321 12.4894 191.526 12.6587 191.78 12.8345C192.04 13.0103 192.333 13.1958 192.659 13.3911C192.984 13.5864 193.316 13.7948 193.655 14.0161C194 14.2375 194.335 14.4784 194.661 14.7388C194.986 14.9992 195.276 15.2824 195.53 15.5884C195.79 15.8944 195.999 16.2297 196.155 16.5942C196.311 16.9523 196.389 17.3429 196.389 17.7661C196.389 18.1307 196.324 18.4627 196.194 18.7622C196.064 19.0617 195.878 19.3188 195.637 19.5337C195.396 19.7485 195.11 19.9146 194.778 20.0317C194.446 20.1489 194.081 20.2075 193.684 20.2075C193.183 20.2075 192.721 20.1294 192.297 19.9731C191.874 19.8234 191.51 19.6151 191.204 19.3481C190.898 19.0812 190.657 18.7622 190.481 18.3911C190.312 18.02 190.227 17.6131 190.227 17.1704C190.227 16.5975 190.328 16.1808 190.53 15.9204C190.738 15.66 191.064 15.5298 191.506 15.5298C191.78 15.5298 191.998 15.5819 192.161 15.686C192.323 15.7902 192.405 15.9172 192.405 16.0669C192.405 16.145 192.392 16.2264 192.366 16.311C192.34 16.3892 192.31 16.4738 192.278 16.5649C192.252 16.6496 192.226 16.7407 192.2 16.8384C192.18 16.936 192.17 17.0337 192.17 17.1313C192.17 17.3006 192.209 17.4634 192.288 17.6196C192.366 17.7759 192.47 17.9126 192.6 18.0298C192.737 18.1535 192.893 18.2511 193.069 18.3228C193.245 18.3944 193.43 18.4302 193.625 18.4302C194.146 18.4302 194.407 18.2153 194.407 17.7856C194.407 17.4471 194.273 17.1281 194.006 16.8286C193.739 16.5226 193.404 16.2264 193 15.9399C192.597 15.647 192.161 15.354 191.692 15.061C191.23 14.7681 190.797 14.4621 190.393 14.1431C189.989 13.8241 189.654 13.4855 189.387 13.1274C189.12 12.7629 188.987 12.369 188.987 11.9458C188.987 11.5942 189.058 11.272 189.202 10.979C189.351 10.686 189.553 10.4354 189.807 10.2271C190.061 10.0122 190.357 9.84619 190.696 9.729C191.041 9.61182 191.412 9.55322 191.809 9.55322Z" fill="black"/>
</svg>
