<svg width="14" height="14" viewBox="0 0 14 14" fill="none" xmlns="http://www.w3.org/2000/svg">
<mask id="mask0_10_1934" style="mask-type:alpha" maskUnits="userSpaceOnUse" x="0" y="0" width="14" height="14">
<rect width="14" height="14" fill="#D9D9D9"/>
</mask>
<g mask="url(#mask0_10_1934)">
<path d="M2.5375 12.075C2.34306 12.1528 2.16319 12.1309 1.99792 12.0094C1.83264 11.8878 1.75 11.725 1.75 11.5208V3.35417C1.75 3.22778 1.78646 3.11597 1.85938 3.01875C1.93229 2.92153 2.03194 2.84861 2.15833 2.8L5.25 1.75L8.75 2.975L11.4625 1.925C11.6569 1.84722 11.8368 1.8691 12.0021 1.99062C12.1674 2.11215 12.25 2.275 12.25 2.47917V7.39375C12.1042 7.17014 11.9316 6.96597 11.7323 6.78125C11.533 6.59653 11.3167 6.43611 11.0833 6.3V3.325L9.33333 3.99583V5.83333C9.12917 5.83333 8.92986 5.85035 8.73542 5.88438C8.54097 5.9184 8.35139 5.96944 8.16667 6.0375V3.99583L5.83333 3.17917V10.8062L2.5375 12.075ZM2.91667 10.675L4.66667 10.0042V3.17917L2.91667 3.7625V10.675ZM9.33333 10.5C9.66389 10.5 9.93854 10.4028 10.1573 10.2083C10.376 10.0139 10.4903 9.72222 10.5 9.33333C10.5097 9.00278 10.4003 8.72569 10.1719 8.50208C9.9434 8.27847 9.66389 8.16667 9.33333 8.16667C9.00278 8.16667 8.72569 8.27847 8.50208 8.50208C8.27847 8.72569 8.16667 9.00278 8.16667 9.33333C8.16667 9.66389 8.27847 9.94097 8.50208 10.1646C8.72569 10.3882 9.00278 10.5 9.33333 10.5ZM9.33333 11.6667C8.69167 11.6667 8.14236 11.4382 7.68542 10.9812C7.22847 10.5243 7 9.975 7 9.33333C7 8.69167 7.22847 8.14236 7.68542 7.68542C8.14236 7.22847 8.69167 7 9.33333 7C9.975 7 10.5243 7.22847 10.9812 7.68542C11.4382 8.14236 11.6667 8.69167 11.6667 9.33333C11.6667 9.55694 11.6399 9.7684 11.5865 9.96771C11.533 10.167 11.4528 10.3542 11.3458 10.5292L12.8333 12.0167L12.0167 12.8333L10.5292 11.3458C10.3542 11.4528 10.167 11.533 9.96771 11.5865C9.7684 11.6399 9.55694 11.6667 9.33333 11.6667Z" fill="#1C1B1F"/>
</g>
</svg>
